<?xml version="1.0" standalone="no"?>
<!DOCTYPE svg PUBLIC "-//W3C//DTD SVG 20010904//EN"
 "http://www.w3.org/TR/2001/REC-SVG-20010904/DTD/svg10.dtd">
<svg version="1.0" xmlns="http://www.w3.org/2000/svg"
 width="256.000000pt" height="248.000000pt" viewBox="0 0 256.000000 248.000000"
 preserveAspectRatio="xMidYMid meet">

<g transform="translate(0.000000,248.000000) scale(0.100000,-0.100000)"
fill="#000000" stroke="none">
<path d="M1290 2245 c0 -38 2 -40 29 -40 32 0 31 6 -8 55 l-21 25 0 -40z"/>
<path d="M1106 1986 c-9 -45 -5 -51 23 -36 26 13 26 21 2 51 l-18 23 -7 -38z"/>
<path d="M1446 1993 c-10 -13 -16 -26 -14 -27 1 -2 13 -8 25 -15 28 -14 36 -1
20 37 l-12 29 -19 -24z"/>
<path d="M1203 1962 c-126 -45 -213 -143 -269 -304 -34 -97 -44 -277 -20 -388
63 -298 302 -465 514 -359 79 39 144 112 193 214 121 254 75 583 -105 753 -97
92 -208 122 -313 84z m205 -68 c67 -33 127 -101 167 -189 46 -99 60 -165 59
-280 -1 -163 -45 -294 -130 -386 -75 -79 -125 -104 -209 -104 -59 0 -79 5
-124 30 -205 113 -285 479 -162 739 89 184 253 263 399 190z"/>
<path d="M1229 1747 c-41 -28 -95 -129 -109 -206 -45 -245 65 -488 204 -450
127 35 191 301 124 517 -26 85 -97 162 -150 162 -20 0 -50 -10 -69 -23z m95
-97 c18 0 22 -15 6 -25 -15 -10 -12 -21 15 -53 14 -17 25 -38 25 -48 0 -16 1
-16 15 2 8 10 15 14 15 7 0 -7 12 -19 26 -26 17 -9 23 -17 15 -21 -6 -4 -11
-16 -11 -27 0 -16 -5 -19 -20 -14 -17 5 -20 2 -20 -27 0 -55 -20 -110 -51
-141 -28 -27 -28 -29 -9 -34 22 -6 26 -18 9 -29 -6 -3 -9 -15 -6 -25 6 -22 3
-23 -23 -9 -13 7 -21 7 -25 0 -10 -17 -28 -11 -21 6 4 10 -1 25 -10 35 -16 18
-16 19 4 19 28 0 28 11 1 28 -25 16 -58 87 -59 126 0 25 -3 27 -24 22 -20 -5
-23 -3 -19 13 3 10 0 22 -6 25 -16 10 -13 26 4 26 9 0 18 7 21 15 4 8 11 15
18 15 17 0 67 103 56 114 -15 15 -12 26 5 26 9 0 18 7 22 16 6 16 7 16 18 0 7
-9 20 -16 29 -16z"/>
<path d="M1000 1884 c-13 -33 -13 -34 3 -34 8 0 21 8 30 18 13 14 14 21 5 30
-18 18 -27 15 -38 -14z"/>
<path d="M1544 1899 c-7 -12 32 -56 42 -46 3 3 4 18 0 32 -7 26 -29 34 -42 14z"/>
<path d="M912 1761 c-11 -30 -7 -41 13 -41 14 0 38 48 30 61 -12 18 -33 8 -43
-20z"/>
<path d="M1633 1783 c-10 -3 -9 -11 2 -34 25 -47 55 -33 34 15 -13 27 -15 28
-36 19z"/>
<path d="M851 1620 c-10 -29 -9 -30 20 -30 18 0 29 5 29 14 0 8 3 21 6 30 5
12 0 16 -19 16 -19 0 -28 -7 -36 -30z"/>
<path d="M1684 1628 c3 -13 6 -26 6 -30 0 -5 13 -8 30 -8 l29 0 -17 30 c-21
36 -58 42 -48 8z"/>
<path d="M1710 1480 c0 -36 3 -40 24 -40 l25 0 -17 40 c-22 51 -32 51 -32 0z"/>
<path d="M834 1475 c-11 -34 -11 -35 17 -35 26 0 29 3 29 35 0 27 -4 35 -18
35 -11 0 -21 -12 -28 -35z"/>
<path d="M854 1353 c-3 -10 -10 -28 -15 -40 -8 -21 -6 -23 22 -23 28 0 31 3
25 23 -3 12 -6 30 -6 40 0 9 -5 17 -10 17 -6 0 -13 -8 -16 -17z"/>
<path d="M1706 1338 c-10 -39 -7 -48 18 -48 23 0 24 2 13 35 -12 40 -22 44
-31 13z"/>
<path d="M872 1175 c-10 -34 -9 -36 11 -29 32 9 40 20 32 43 -10 32 -30 25
-43 -14z"/>
<path d="M1672 1185 c-11 -23 -9 -27 14 -35 40 -15 43 -12 25 25 -19 41 -24
43 -39 10z"/>
<path d="M938 1041 c-18 -46 -15 -49 25 -22 27 18 27 18 9 41 l-18 22 -16 -41z"/>
<path d="M1610 1055 c-15 -18 -7 -31 30 -50 l28 -15 -16 40 c-19 44 -24 47
-42 25z"/>
<path d="M1029 906 c-15 -43 -15 -44 3 -33 10 7 18 20 18 30 0 12 5 17 14 14
20 -8 28 4 15 20 -20 23 -34 14 -50 -31z"/>
<path d="M1513 943 c-18 -7 -16 -23 2 -23 8 0 15 -6 15 -13 0 -8 12 -24 26
-38 l26 -24 -26 53 c-14 28 -27 52 -29 51 -1 0 -8 -3 -14 -6z"/>
<path d="M1060 819 c0 -66 3 -80 14 -76 8 3 32 11 53 16 21 6 45 16 53 22 15
10 -4 9 -77 -8 -22 -5 -23 -2 -23 50 l0 56 41 -14 c43 -16 77 -20 66 -8 -8 7
-106 43 -119 43 -4 0 -8 -36 -8 -81z"/>
<path d="M1446 881 c-28 -9 -52 -23 -54 -29 -2 -8 14 -6 50 8 29 11 54 20 56
20 1 0 2 -25 2 -56 0 -53 -1 -56 -22 -51 -85 19 -91 20 -85 10 4 -6 26 -16 51
-22 24 -6 51 -13 60 -17 14 -5 16 4 16 75 0 91 2 89 -74 62z"/>
<path d="M1376 557 c3 -10 9 -15 12 -12 3 3 0 11 -7 18 -10 9 -11 8 -5 -6z"/>
<path d="M1363 383 c-7 -3 -13 -10 -13 -16 0 -14 87 -20 95 -6 11 16 -5 31
-20 19 -9 -8 -20 -8 -32 -2 -10 5 -24 7 -30 5z"/>
<path d="M180 225 l0 -106 72 3 c46 2 73 7 76 16 3 9 -12 12 -52 12 l-56 0 0
90 c0 83 -1 90 -20 90 -19 0 -20 -7 -20 -105z"/>
<path d="M352 228 c3 -95 4 -103 23 -103 19 0 20 7 20 100 0 97 -1 100 -23
103 -23 3 -23 3 -20 -100z"/>
<path d="M456 299 c-34 -41 -36 -106 -3 -144 31 -37 93 -44 130 -15 31 24 34
38 11 47 -9 3 -23 -3 -35 -16 -25 -26 -43 -27 -69 -1 -39 39 -15 130 34 130
13 0 29 -7 36 -15 13 -16 50 -21 50 -7 0 23 -48 52 -87 52 -34 0 -46 -6 -67
-31z"/>
<path d="M650 225 c0 -98 1 -105 20 -105 19 0 20 7 20 105 0 98 -1 105 -20
105 -19 0 -20 -7 -20 -105z"/>
<path d="M720 315 c0 -10 10 -15 30 -15 l29 0 3 -87 c3 -80 5 -88 23 -88 18 0
20 8 23 88 l3 87 29 0 c20 0 30 5 30 15 0 12 -16 15 -85 15 -69 0 -85 -3 -85
-15z"/>
<path d="M906 230 c-20 -56 -36 -103 -36 -106 0 -2 8 -4 18 -4 11 0 24 11 30
25 10 21 19 25 52 25 33 0 42 -4 52 -25 11 -26 48 -35 48 -12 0 6 -15 52 -33
102 -31 85 -34 90 -63 93 -31 3 -31 2 -68 -98z m83 19 c16 -46 14 -49 -20 -49
-24 0 -30 3 -25 16 3 9 9 27 12 40 8 33 20 30 33 -7z"/>
<path d="M1125 306 c-13 -13 -27 -36 -31 -51 -10 -40 13 -104 42 -117 13 -6
24 -15 24 -19 0 -4 9 -11 21 -14 23 -8 16 -20 -16 -28 -13 -3 -9 -5 12 -6 34
-1 49 13 45 42 -2 9 1 17 7 17 14 0 41 29 41 46 0 21 -33 17 -48 -6 -15 -25
-44 -26 -65 -2 -19 21 -22 83 -7 113 13 23 52 25 74 4 19 -19 46 -19 46 -1 0
47 -105 62 -145 22z"/>
<path d="M1343 315 c-27 -19 -46 -77 -38 -115 9 -41 58 -80 100 -80 42 0 91
39 100 80 8 38 -11 96 -38 115 -12 8 -40 15 -62 15 -22 0 -50 -7 -62 -15z
m102 -31 c11 -12 15 -30 13 -62 -2 -38 -8 -49 -29 -61 -24 -13 -29 -13 -53 2
-22 15 -26 25 -26 62 0 49 19 75 55 75 13 0 31 -7 40 -16z"/>
<path d="M1540 225 l0 -105 80 0 c63 0 80 3 80 15 0 10 -15 15 -57 17 -57 3
-58 3 -61 36 l-3 32 55 0 c42 0 56 4 56 14 0 11 -15 16 -52 18 -46 3 -53 6
-56 25 -3 20 1 22 54 25 35 2 59 8 62 16 3 9 -17 12 -77 12 l-81 0 0 -105z"/>
<path d="M1749 309 c-36 -36 -8 -80 63 -100 42 -11 53 -43 18 -54 -21 -7 -60
10 -60 25 0 13 -27 13 -34 1 -11 -16 5 -39 35 -51 40 -17 95 -5 115 26 26 38
7 68 -55 89 -38 12 -51 22 -51 36 0 15 7 19 30 19 18 0 33 -6 36 -15 8 -19 44
-20 44 -2 0 46 -102 65 -141 26z"/>
<path d="M2020 225 l0 -105 75 0 c60 0 75 3 75 15 0 12 -13 15 -55 15 l-55 0
0 35 0 35 50 0 c38 0 50 4 50 15 0 11 -12 15 -50 15 -46 0 -50 2 -50 24 0 23
4 25 52 28 30 2 53 8 56 16 3 9 -16 12 -72 12 l-76 0 0 -105z"/>
<path d="M2210 224 l0 -106 70 4 c78 4 103 19 103 64 0 15 -8 33 -17 40 -11 8
-13 14 -7 19 15 9 14 58 -1 73 -7 7 -40 12 -80 12 l-68 0 0 -106z m124 67 c14
-22 -7 -41 -45 -41 -35 0 -39 3 -39 25 0 22 4 25 39 25 22 0 42 -4 45 -9z m5
-89 c16 -30 -5 -52 -49 -52 -39 0 -40 1 -40 35 0 34 1 35 40 35 27 0 42 -5 49
-18z"/>
</g>
</svg>
